<svg xmlns="http://www.w3.org/2000/svg" viewBox="0 0 567 178" id="bajaj-finserv">
  <path fill="#0069b4" d="M192.1 82.11V28.25h47.63c9.82 0 25.62 1.33 25.62 14.13 0 6.29-5.52 10.73-11.94 12.34 8 2.4 11.94 6.82 11.94 12.87 0 13.2-15 14.46-25.62 14.5H192.1zm17.49-22.69l5-8.26a6.9 6.9 0 0 1 5.67-3h19.47c3.48 0 6.31-1.59 6.31-4.29s-2.81-4.32-6.31-4.32H209.59zm0 0V82.09l5-8.27a6.92 6.92 0 0 1 5.67-3h19.21c3.64.06 6.52-2.52 6.52-5.67s-2.82-5.69-6.52-5.69zm98-18.17L284 82.15H263.46l32.92-53.9h22.5l32.89 53.86H331.23l-5.52-9.6H295.23l5.06-8.26a7 7 0 0 1 5.67-3h13.2zm143 0L427 82.15H406.43l32.91-53.9h22.5l32.88 53.86H474.23l-5.53-9.6H438.23l5-8.26a6.93 6.93 0 0 1 5.65-3H462.1l-11.52-20zm-67 29.57c4 0 7.19-1.93 7.19-5.85V28.25h17.41V66.59c0 11.62-7.69 15.52-17.76 15.52h-29.1a7 7 0 0 1-5.66-3l-5.06-8.3zm142.93 0c4 0 7.21-1.93 7.21-5.85V28.25h17.46V66.59c0 11.62-7.67 15.52-17.75 15.52h-29.1a6.9 6.9 0 0 1-5.66-3l-5.06-8.3zM192 100h43.12v13.09H206.94V126h25.48v12.39H206.94v15.58H192zM245.28 100h15v53.9h-15zM273.23 100h13.94l22.18 28.49V100h14.78v53.9H311l-23-29.56v29.56H273.23zM332.68 145.93L341 136a27.76 27.76 0 0 0 17.48 6.47c4 0 6.16-1.39 6.16-3.7v-.15c0-2.23-1.77-3.47-9.08-5.16-11.48-2.62-20.33-5.85-20.33-16.94v-.15c0-10 7.93-17.25 20.87-17.25 9.16 0 16.32 2.46 22.17 7.16l-7.47 10.55c-4.93-3.47-10.31-5.32-15.09-5.32-3.62 0-5.39 1.54-5.39 3.47v.15c0 2.47 1.85 3.54 9.32 5.24 12.4 2.69 20.09 6.7 20.09 16.79v.15c0 11-8.7 17.55-21.78 17.55-9.56 0-18.64-3-25.26-8.93zM390 100h43.35v12.71H404.83v8.16H430.7v11.78H404.83v8.56h28.95V154H390zM444.48 100H470c8.24 0 13.94 2.16 17.55 5.85 3.16 3.08 4.78 7.24 4.78 12.55v.16c0 8.24-4.39 13.7-11.09 16.55l12.86 18.79H476.82L466 137.62h-6.54v16.32H444.48zm24.75 25.88c5.09 0 8-2.47 8-6.4v-.15c0-4.24-3.08-6.39-8.08-6.39h-9.78v12.94zM497.07 100h16.71L526 134.15 538.23 100h16.4l-21.87 54.29H518.94zM137.23 109.35c0 19.17-21.42 21-36.57 21.09H87V113.18h27.1V100H87V82.11h30V68.19H71.14v62.28H53.61V52.19h47.07c14 0 36.57 2 36.57 20.52 0 9.16-7.85 15.9-17 18.21 11.34 3.5 17 9.12 17 18.43zM93.33 21a70.33 70.33 0 1 0 70.33 70.33h0A70.33 70.33 0 0 0 93.35 21z"></path>
</svg>
